<svg xmlns="http://www.w3.org/2000/svg" width="100" height="100" viewBox="0 0 100 100"><defs><style>.a{fill:#bf3976;}.b{fill:#fff;}</style></defs><g transform="translate(-284 -1451)"><g transform="translate(104 464.27)"><g transform="translate(180 986.417)"><circle class="a" cx="50" cy="50" r="50" transform="translate(0 0.313)"/></g></g><g transform="translate(797.878 1732.849)"><path class="b" d="M73.59,36.912l-3.638-6.367V23.5a4.516,4.516,0,0,0-2.2-3.865l-6.139-3.562L57.977,9.779a4.424,4.424,0,0,0-3.865-2.2H46.835L40.62,4.018a4.681,4.681,0,0,0-4.472,0L29.934,7.581H22.809a4.516,4.516,0,0,0-3.865,2.2l-3.486,6.215L9.091,19.632a4.424,4.424,0,0,0-2.2,3.865v7.276L3.406,36.837a4.287,4.287,0,0,0,0,4.4L6.893,47.3v7.276a4.516,4.516,0,0,0,2.2,3.865l6.367,3.638,3.562,6.139a4.424,4.424,0,0,0,3.865,2.2H30.01l6.215,3.562a4.287,4.287,0,0,0,4.4,0l6.215-3.562h7.276a4.516,4.516,0,0,0,3.865-2.2l3.638-6.291,6.139-3.562a4.424,4.424,0,0,0,2.2-3.865V47.448l3.638-6.367A3.782,3.782,0,0,0,73.59,36.912Zm-21.6-15.234.91-2.2.91,2.2,1.895.758-1.971.834L52.9,25.24l-.834-1.971-1.971-.834Zm-30.241,0,.91-2.2.91,2.2,1.895.758-1.971.834-.834,1.971L21.9,23.346l-1.971-.834Zm-6.67,10.914a1.364,1.364,0,1,1,1.364-1.364A1.409,1.409,0,0,1,15.078,32.592ZM19.55,50.4l-.834,1.971L17.883,50.4l-1.971-.834,1.895-.758.91-2.2.91,2.2,1.895.758Zm34.41-8.186c-2.35,4.169-14.325,15.537-15.386,16.523v-.076c-1.44-1.364-12.961-12.354-15.31-16.447,0,0-6.139-7.428,0-12.961,0,0,8.792-7.428,15.31,2.729,6.518-10.156,15.31-2.729,15.31-2.729C60.1,34.714,53.96,42.218,53.96,42.218Zm3.714,8.792a1.364,1.364,0,1,1,1.364-1.364A1.359,1.359,0,0,1,57.674,51.01Zm3.865-18.418A1.364,1.364,0,1,1,62.9,31.228,1.359,1.359,0,0,1,61.539,32.592Z" transform="translate(-502.678 -271.45)"/></g></g></svg>