<svg xmlns="http://www.w3.org/2000/svg" width="100" height="100" viewBox="0 0 100 100"><defs><style>.a{fill:#bf3976;}.b{fill:#fff;}</style></defs><g transform="translate(-284 -1185)"><g transform="translate(284 1184.687)"><circle class="a" cx="50" cy="50" r="50" transform="translate(0 0.313)"/></g><g transform="translate(262.072 1205.009)"><g transform="translate(40.928 0)"><path class="b" d="M383.842,62.334,392.176,54l3.225,3.225L387.025,65.6" transform="translate(-332.43 -54)"/><g transform="translate(0 8.223)"><path class="b" d="M107.972,130.137l.665-20.047-7.516,7.516a7.747,7.747,0,1,1-3.225-3.225l7.516-7.516,3.237,2.879.1-2.99-23.383.776L54,138.895,76.607,161.5ZM76.982,150.084,65.418,138.52l3.225-3.225,11.563,11.563Z" transform="translate(-54 -106.754)"/><path class="b" d="M292.88,180.12a3.186,3.186,0,1,0,4.506,0A3.189,3.189,0,0,0,292.88,180.12Z" transform="translate(-254.86 -167.898)"/></g></g></g></g></svg>