<svg xmlns="http://www.w3.org/2000/svg" width="100" height="100" viewBox="0 0 100 100"><defs><style>.a{fill:#bf3976;}.b{fill:#fff;}</style></defs><g transform="translate(-284 -1975)"><g transform="translate(104 988.27)"><g transform="translate(180 986.417)"><circle class="a" cx="50" cy="50" r="50" transform="translate(0 0.313)"/></g></g><g transform="translate(295.913 1993.849)"><g transform="translate(15.087 0)"><path class="b" d="M42.715,959.35a22.8,22.8,0,1,0,22.809,22.785A22.778,22.778,0,0,0,42.715,959.35Zm0,9.971,4.5,8.337,8.977,1.3-7.058,6.395,1.918,9.617L42.715,990.5l-8.337,4.476,1.918-9.617-7.058-6.395,8.977-1.3,4.5-8.337Zm-14.14,32.591v22.643l14.14-8.64,14.14,8.645v-22.643a24.256,24.256,0,0,1-28.28,0Z" transform="translate(-19.906 -959.35)"/></g></g></g></svg>