<svg xmlns="http://www.w3.org/2000/svg" width="100" height="100" viewBox="0 0 100 100"><defs><style>.a{fill:#bf3976;}.b{fill:#fff;}</style></defs><g transform="translate(-284 -1716)"><g transform="translate(104 729.27)"><g transform="translate(180 986.417)"><circle class="a" cx="50" cy="50" r="50" transform="translate(0 0.313)"/></g></g><g transform="translate(296.21 1732.849)"><g transform="translate(3.79 0)"><path class="b" d="M21.806,46.885a19.105,19.105,0,1,0,36.413-8.092l-4.96,4.96a12.731,12.731,0,1,1-9.216-9.216L49,29.577a19.107,19.107,0,0,0-27.2,17.308Z" transform="translate(-9.068 -10.514)"/><path class="b" d="M71.515,14.835l0-9.835-8.89,8.89-1.978,8-13.5,13.5A6.39,6.39,0,1,0,50.96,39.2l13.5-13.5,8-1.979,8.889-8.89Z" transform="translate(-13.136 -5)"/><g transform="translate(0 4.528)"><path class="b" d="M82.752,35.45l-5.966,1.475Z" transform="translate(-22.378 -16.899)"/><path class="b" d="M65.375,29.525h0L59.408,31A25.478,25.478,0,1,1,48.66,20.251l1.475-5.966h0l.089-.362A31.846,31.846,0,1,0,65.736,29.436Z" transform="translate(-5 -10.974)"/><path class="b" d="M62.6,21.308l1.475-5.966h0Z" transform="translate(-18.944 -12.031)"/></g></g></g></g></svg>