<svg xmlns="http://www.w3.org/2000/svg" width="477.219" height="332.177" viewBox="0 0 477.219 332.177"><defs><style>.a{opacity:0.4;}.b{fill:#efd8de;}.c{fill:#b1bcf2;}.d{fill:#fff;}.e{fill:#464a79;}.f{fill:#d9e1ff;}.g{fill:#e9eeff;}.h{fill:#919dd8;}.i{fill:#7e8cc1;}.j{fill:#6167a5;}.k{fill:#7881bc;}.l{opacity:0.5;}.m{fill:#d86c23;}.n{fill:#ff9444;}.o{fill:#fc6;}.p{fill:#ea7e34;}.q{fill:#545c91;}.r{fill:#d2e1f1;}.s{fill:#505893;}.t{fill:#394372;}.u{fill:#454d87;}.v{fill:#2e2f4d;}.w{fill:#f6a49d;}.x{fill:#d47c74;}.y{fill:#e96362;}.z{fill:#4f1d30;}.aa{fill:#ffefe7;}.ab{fill:#474b7b;}.ac{fill:#f7d1c1;}.ad{fill:#25335a;}.ae{fill:#2f426b;}.af{fill:#bf3976;}.ag{fill:#b0c0d2;}.ah{fill:#747dbe;}.ai{fill:#848ebf;}.aj{fill:#b4c1ef;}.ak{fill:#d3efb4;}</style></defs><g transform="translate(12.448 -48.242)"><g class="a" transform="translate(-12.449 50.449)"><path class="b" d="M196.139,51.33A158.514,158.514,0,0,1,325.6,118.215h0s18.316,26.228,28.052,33.206c10.218,7.319,22.7,10.79,35.189,12.255a95.753,95.753,0,0,1-10.187,190.83c-28.335.319-139.348,4.188-182.516,4.188-87.663,0-158.709-61-158.709-148.655A158.708,158.708,0,0,1,196.139,51.33Z" transform="translate(-37.43 -51.33)"/><path class="c" d="M722.215,76.263c-20.189-1.412-37.992,19.1-29.952,37.673,7.049,16.271,17.019,34.038,30.044,45.115,29.163,24.794,65.707,16.094,76.944-12.313s-14.611-55.5-43.831-64.481A141.016,141.016,0,0,0,722.215,76.263Z" transform="translate(-401.241 -65.186)"/></g><path class="d" d="M133.806,797.186c-.137-6.926,5.113-15.516,5.336-15.876l.774.476c-.054.083-5.336,8.727-5.2,15.384Z" transform="translate(-78.048 -428.658)"/><path class="d" d="M910.1,797.688l-.674-.109a20.541,20.541,0,0,0-4.2-15.6l.512-.452A21.251,21.251,0,0,1,910.1,797.688Z" transform="translate(-509.91 -421.964)"/><path class="d" d="M920.251,792.515l-.521-.44c.05-.059,5.178-6.195,6.052-10.035l.668.153C925.538,786.192,920.466,792.259,920.251,792.515Z" transform="translate(-519.894 -422.315)"/><path class="d" d="M903.361,814.977c-4.036-.221-7.611-4.367-7.761-4.554l.521-.443c.034.041,3.534,4.111,7.277,4.314Z" transform="translate(-503.291 -441.539)"/><path class="d" d="M848.482,819.964c-3.6-2.995-11.208-5.4-11.283-5.4l.2-.652c.312.1,7.8,2.461,11.516,5.54Z" transform="translate(-463.108 -444.243)"/><path class="d" d="M860.431,812.966l-.683-.019a11.541,11.541,0,0,0-1.248-5.431l.6-.337A12.063,12.063,0,0,1,860.431,812.966Z" transform="translate(-477.764 -439.613)"/><rect class="e" width="188.402" height="292.044" rx="24.04" transform="translate(125.441 82.392)"/><path class="f" d="M493.62,150.319V421.093a2.529,2.529,0,0,1-2.534,2.529H323.959a3.821,3.821,0,0,1-3.829-3.821V150.319a3.825,3.825,0,0,1,3.834-3.829H489.787A3.834,3.834,0,0,1,493.62,150.319Z" transform="translate(-187.238 -56.646)"/><path class="d" d="M497.744,175.847V425.76a2.285,2.285,0,0,1-2.24,2.335H347.52a3.457,3.457,0,0,1-3.391-3.527V175.831a3.386,3.386,0,0,1,3.395-3.391H494.353a3.607,3.607,0,0,1,.522.037,3.387,3.387,0,0,1,2.736,2.356,1.716,1.716,0,0,1,.083.327,1.244,1.244,0,0,1,.033.17A3.539,3.539,0,0,1,497.744,175.847Z" transform="translate(-201.301 -71.853)"/><path class="c" d="M497.745,175.847v35.028H344.13V175.831a3.386,3.386,0,0,1,3.395-3.391H494.354a3.607,3.607,0,0,1,.522.037,3.411,3.411,0,0,1,2.736,2.356,2.9,2.9,0,0,1,.083.327.818.818,0,0,0,.033.17A3.531,3.531,0,0,1,497.745,175.847Z" transform="translate(-201.302 -71.853)"/><rect class="g" width="95.88" height="4.951" transform="translate(189.853 113.603)"/><rect class="g" width="69.869" height="4.951" transform="translate(202.861 121.05)"/><rect class="h" width="27.468" height="27.468" rx="3.78" transform="translate(153.542 106.697)"/><rect class="f" width="27.468" height="27.468" rx="3.78" transform="translate(154.838 105.443)"/><path class="i" d="M401.942,205.846a8.557,8.557,0,1,1-2.506-6.08,8.586,8.586,0,0,1,2.506,6.08Z" transform="translate(-225.117 -86.398)"/><path class="h" d="M403.532,204.574a8.574,8.574,0,1,1-2.516-6.067A8.586,8.586,0,0,1,403.532,204.574Z" transform="translate(-226.049 -85.66)"/><circle class="f" cx="2.861" cy="2.861" r="2.861" transform="translate(165.995 112.129)"/><path class="f" d="M404.709,220.525a8.582,8.582,0,0,1-11.509,0,5.8,5.8,0,0,1,11.509,0Z" transform="translate(-230.057 -97.04)"/><path class="c" d="M361.132,618H482.745a4.856,4.856,0,0,1,4.856,4.856v46.975a4.856,4.856,0,0,1-4.856,4.856H361.132a4.852,4.852,0,0,1-4.852-4.852V622.86a4.852,4.852,0,0,1,4.852-4.86Z" transform="translate(-208.422 -332.956)"/><rect class="f" width="129.285" height="55.797" rx="11.54" transform="translate(154.995 277.944)"/><path class="c" d="M505.66,689.2H432.43a6.21,6.21,0,0,1-6.21-6.21h0a6.21,6.21,0,0,1,6.21-6.21h73.23a6.21,6.21,0,0,1,6.21,6.21h0A6.21,6.21,0,0,1,505.66,689.2Z" transform="translate(-249.407 -367.402)"/><rect class="d" width="79.291" height="3.386" transform="translate(179.992 299.475)"/><rect class="d" width="112.427" height="3.386" transform="translate(163.424 289.892)"/><circle class="c" cx="18.741" cy="18.741" r="18.741" transform="translate(190.894 244.718) rotate(-45)"/><circle class="f" cx="18.741" cy="18.741" r="18.741" transform="translate(195.377 244.715) rotate(-45)"/><path class="j" d="M533.047,500.982l-.774-.025v-.087a.46.46,0,0,0-.455-.472H522.4a.46.46,0,0,0-.455.464h-.774a1.242,1.242,0,0,1,1.242-1.242h9.41a1.205,1.205,0,0,1,.882.377,1.242,1.242,0,0,1,.348.894Z" transform="translate(-305.049 -263.584)"/><rect class="j" width="1.341" height="0.745" transform="translate(221.664 235.634)"/><path class="j" d="M533.715,494.051l-.766-.116a4.094,4.094,0,0,1,.447-1.3,1.242,1.242,0,0,0,.037-1.13c-.116-.224-.489-.36-.961-.161-.356.145-.414.861-.389,1.047l-.774.033c0-.145-.037-1.424.865-1.8a1.485,1.485,0,0,1,1.95.534,1.991,1.991,0,0,1-.066,1.875A3.189,3.189,0,0,0,533.715,494.051Z" transform="translate(-310.991 -258.226)"/><path class="k" d="M524.171,520.211l7.729-.1s-.294-2.405-.828-4.682-3.391-6.3-3.564-7.129.3-1.71,1.039-3.2-.05-2.227.373-3a6.5,6.5,0,0,0,.224-2.683,7.783,7.783,0,0,0-1.242-.091,6.191,6.191,0,0,1-3.627,1.569h-.1a5.541,5.541,0,0,1-3.473-1.569,10.761,10.761,0,0,0-1.4.132,6.3,6.3,0,0,0,.207,2.641c.418.766-.368,1.511.373,3s1.217,2.38,1.043,3.2-3.026,4.831-3.569,7.112-.828,4.682-.828,4.682l7.733.1Z" transform="translate(-302.324 -263.414)"/><circle class="c" cx="18.741" cy="18.741" r="18.741" transform="translate(148.688 258.64) rotate(-76.72)"/><circle class="f" cx="18.741" cy="18.741" r="18.741" transform="translate(153.17 258.64) rotate(-76.72)"/><circle class="c" cx="18.741" cy="18.741" r="18.741" transform="translate(241.005 258.642) rotate(-76.72)"/><circle class="f" cx="18.741" cy="18.741" r="18.741" transform="translate(245.484 258.637) rotate(-76.72)"/><path class="k" d="M418.114,511.093c-1.006-1.2-.882-3.8-.791-4.794a.281.281,0,0,0-.348-.3l-5.75,1.42-5.75-1.432a.281.281,0,0,0-.348.3c.091.994.215,3.6-.791,4.794a7.307,7.307,0,0,0-1.768,4.993l8.656-.079,8.657.079A7.217,7.217,0,0,0,418.114,511.093Z" transform="translate(-235.534 -267.311)"/><circle class="k" cx="6.135" cy="6.135" r="6.135" transform="translate(167.702 235.448) rotate(-22.5)"/><path class="c" d="M419.259,532.569l-.029.025H398.485l-.025-.025a12.847,12.847,0,0,1,.157-1.689c.157-1.06,7.7-3.97,7.7-3.97a10.771,10.771,0,0,0-.265-4.14c-.149-.7-.286-1.172-.286-1.172l2.637-1.138h.9l2.637,1.138s-.157.551-.323,1.333a10.78,10.78,0,0,0-.228,3.974s7.551,2.9,7.7,3.97A12.5,12.5,0,0,1,419.259,532.569Z" transform="translate(-233.14 -275.797)"/><g class="l" transform="translate(172.619 244.667)"><path class="k" d="M422.263,521.608s-.157.551-.319,1.333a4.024,4.024,0,0,1-2.7,1.379,3.682,3.682,0,0,1-2.865-1.536c-.149-.7-.286-1.176-.286-1.176l2.633-1.138h.907Z" transform="translate(-416.09 -520.47)"/></g><path class="c" d="M421.475,502.413a5.026,5.026,0,0,0-5.382-5.3,4.968,4.968,0,0,0-4.823,4.827,11.046,11.046,0,0,0,.931,3.978c.248.737,1.859,3.883,4.2,3.763,2.484-.124,3.875-2.948,4.206-3.68A8.491,8.491,0,0,0,421.475,502.413Z" transform="translate(-240.643 -262.109)"/><path class="c" d="M434.292,513.616a1.416,1.416,0,1,1-1.416-1.416A1.416,1.416,0,0,1,434.292,513.616Z" transform="translate(-252.478 -270.956)"/><path class="c" d="M411.682,513a1.416,1.416,0,1,1-1.416-1.416A1.416,1.416,0,0,1,411.682,513Z" transform="translate(-239.228 -270.593)"/><path class="k" d="M424.656,502.694a9.828,9.828,0,0,1-5.8-3.163c-1.888-1.966-2.07-2.989-2.07-2.989s3.813-1.49,5.659,0S425.716,500.484,424.656,502.694Z" transform="translate(-243.881 -261.393)"/><path class="k" d="M410.9,503.346s4.508-1.9,4.939-4.173l-2.712-1.693A4.583,4.583,0,0,0,410.9,503.346Z" transform="translate(-240.237 -262.33)"/><circle class="c" cx="0.828" cy="0.828" r="0.828" transform="translate(174.892 243.889)"/><path class="k" d="M641.812,498.6a10.934,10.934,0,0,1-2.269-3.449,7.192,7.192,0,0,1-5.2,3.051c-2.343.265-2.96-.629-2.96-.629a7.79,7.79,0,0,0-1.457,3.448l-2.343,7.605s-4.38,1.105-4.91,1.813.132,1.656.132,1.656l.662,3.27c.828.576,8.226,1.283,9.861.53s2.343-2.608,2.654-4.554,3.005-6.235,3.005-6.235c.667.219,1.105,9.816,1.105,9.816h.932s.443-8.491.53-9.994S643.315,500.056,641.812,498.6Zm-7.7,11.716c-2.3,1.064-5.8-.617-5.8-.617s2.786-7.829,3.726-8.139A18.64,18.64,0,0,0,637.4,499.7a7.453,7.453,0,0,0,2.741-2.832S636.418,509.255,634.116,510.314Z" transform="translate(-364.408 -260.965)"/><path class="c" d="M380.609,390.528l1.4,4.3a1.871,1.871,0,0,0,1.78,1.292H388.3a1.871,1.871,0,0,1,1.1,3.37l-3.656,2.654a1.876,1.876,0,0,0-.679,2.091l1.4,4.3a1.871,1.871,0,0,1-2.877,2.091l-3.656-2.658a1.871,1.871,0,0,0-2.2,0l-3.656,2.658a1.867,1.867,0,0,1-2.873-2.091l1.4-4.3a1.875,1.875,0,0,0-.679-2.091l-3.656-2.654a1.871,1.871,0,0,1,1.1-3.382h4.521a1.867,1.867,0,0,0,1.776-1.291l1.4-4.3a1.871,1.871,0,0,1,3.556.012Z" transform="translate(-214.994 -198.896)"/><path class="c" d="M446.588,390.528l1.4,4.3a1.867,1.867,0,0,0,1.776,1.292h4.521a1.871,1.871,0,0,1,1.1,3.382l-3.656,2.654a1.875,1.875,0,0,0-.679,2.091l1.4,4.3a1.867,1.867,0,0,1-2.873,2.091l-3.656-2.658a1.871,1.871,0,0,0-2.2,0l-3.656,2.658a1.871,1.871,0,0,1-2.877-2.091l1.4-4.3a1.875,1.875,0,0,0-.679-2.091l-3.656-2.666a1.871,1.871,0,0,1,1.1-3.382h4.517a1.871,1.871,0,0,0,1.78-1.292l1.4-4.3a1.871,1.871,0,0,1,3.556.012Z" transform="translate(-253.659 -198.896)"/><path class="c" d="M512.559,390.524l1.4,4.3a1.863,1.863,0,0,0,1.776,1.292h4.517a1.871,1.871,0,0,1,1.1,3.382l-3.655,2.654a1.867,1.867,0,0,0-.679,2.091l1.4,4.3a1.871,1.871,0,0,1-2.9,2.091l-3.656-2.658a1.863,1.863,0,0,0-2.194,0l-3.656,2.658a1.871,1.871,0,0,1-2.9-2.091l1.4-4.3a1.863,1.863,0,0,0-.679-2.091l-3.614-2.666a1.871,1.871,0,0,1,1.1-3.382h4.517a1.871,1.871,0,0,0,1.78-1.292l1.4-4.3a1.867,1.867,0,0,1,3.552.012Z" transform="translate(-292.318 -198.892)"/><path class="c" d="M578.538,390.523l1.4,4.3a1.871,1.871,0,0,0,1.78,1.292h4.517a1.871,1.871,0,0,1,1.1,3.382l-3.656,2.654a1.863,1.863,0,0,0-.679,2.091l1.4,4.3a1.871,1.871,0,0,1-2.9,2.091l-3.656-2.658a1.863,1.863,0,0,0-2.194,0l-3.656,2.658a1.871,1.871,0,0,1-2.9-2.091l1.4-4.3a1.867,1.867,0,0,0-.679-2.091l-3.614-2.666a1.871,1.871,0,0,1,1.1-3.382h4.517a1.863,1.863,0,0,0,1.776-1.292l1.4-4.3a1.867,1.867,0,0,1,3.552.012Z" transform="translate(-330.984 -198.892)"/><path class="c" d="M646.131,390.687l1.567,4.826a2.1,2.1,0,0,0,2,1.451h5.072a2.1,2.1,0,0,1,1.232,3.8l-4.105,2.98a2.106,2.106,0,0,0-.762,2.348l1.571,4.826a2.1,2.1,0,0,1-3.254,2.348l-4.105-2.985a2.1,2.1,0,0,0-2.469,0l-4.105,2.985a2.1,2.1,0,0,1-3.227-2.348l1.567-4.826a2.106,2.106,0,0,0-.762-2.348l-4.082-2.994a2.1,2.1,0,0,1,1.232-3.8h5.077a2.1,2.1,0,0,0,1.994-1.45l1.567-4.826a2.1,2.1,0,0,1,3.994.014Z" transform="translate(-318.304 -200.567)"/><path class="f" d="M386.267,388.908l1.4,4.293a1.867,1.867,0,0,0,1.776,1.292h4.521a1.871,1.871,0,0,1,1.1,3.382l-3.656,2.658a1.867,1.867,0,0,0-.679,2.07l1.408,4.314a1.867,1.867,0,0,1-2.9,2.091l-3.656-2.658a1.871,1.871,0,0,0-2.2,0l-3.655,2.658a1.871,1.871,0,0,1-2.877-2.091l1.4-4.3a1.867,1.867,0,0,0-.679-2.07l-3.651-2.674a1.871,1.871,0,0,1,1.1-3.382h4.517a1.871,1.871,0,0,0,1.78-1.292l1.4-4.293a1.871,1.871,0,0,1,3.564,0Z" transform="translate(-218.305 -197.944)"/><path class="f" d="M452.254,388.931l1.4,4.293a1.863,1.863,0,0,0,1.776,1.292h4.517a1.871,1.871,0,0,1,1.1,3.382l-3.656,2.658a1.859,1.859,0,0,0-.679,2.07l1.416,4.314a1.871,1.871,0,0,1-2.9,2.091l-3.656-2.658a1.863,1.863,0,0,0-2.194,0l-3.672,2.658a1.871,1.871,0,0,1-2.9-2.091l1.4-4.3a1.855,1.855,0,0,0-.679-2.07l-3.614-2.674a1.871,1.871,0,0,1,1.1-3.382h4.517a1.863,1.863,0,0,0,1.776-1.292l1.4-4.293a1.867,1.867,0,0,1,3.548,0Z" transform="translate(-256.982 -197.967)"/><path class="f" d="M518.246,388.953l1.4,4.293a1.871,1.871,0,0,0,1.78,1.292h4.517a1.871,1.871,0,0,1,1.1,3.382l-3.656,2.658a1.859,1.859,0,0,0-.675,2.07l1.4,4.3a1.871,1.871,0,0,1-2.869,2.107l-3.656-2.658a1.871,1.871,0,0,0-2.2,0l-3.668,2.658a1.871,1.871,0,0,1-2.877-2.091l1.4-4.3a1.859,1.859,0,0,0-.679-2.07l-3.635-2.674a1.871,1.871,0,0,1,1.1-3.382h4.517a1.867,1.867,0,0,0,1.776-1.292l1.4-4.293a1.871,1.871,0,0,1,3.544,0Z" transform="translate(-295.659 -197.988)"/><path class="f" d="M584.238,388.97l1.4,4.293a1.871,1.871,0,0,0,1.776,1.292h4.521a1.871,1.871,0,0,1,1.1,3.382l-3.656,2.658a1.867,1.867,0,0,0-.679,2.07l1.4,4.3a1.871,1.871,0,0,1-2.861,2.107l-3.656-2.658a1.871,1.871,0,0,0-2.2,0l-3.668,2.658a1.867,1.867,0,0,1-2.873-2.091l1.4-4.3a1.867,1.867,0,0,0-.679-2.07l-3.639-2.674a1.871,1.871,0,0,1,1.1-3.382h4.521a1.867,1.867,0,0,0,1.776-1.292l1.4-4.293a1.871,1.871,0,0,1,3.535,0Z" transform="translate(-334.336 -198.005)"/><path class="f" d="M651.791,389.079l1.567,4.821a2.1,2.1,0,0,0,1.995,1.451h5.077a2.1,2.1,0,0,1,1.232,3.8l-4.105,2.985a2.1,2.1,0,0,0-.762,2.325l1.567,4.826a2.1,2.1,0,0,1-3.227,2.348l-4.105-2.985a2.1,2.1,0,0,0-2.469,0l-4.091,3a2.1,2.1,0,0,1-3.254-2.348l1.572-4.826a2.1,2.1,0,0,0-.762-2.325l-4.105-2.985a2.1,2.1,0,0,1,1.232-3.8h5.072a2.1,2.1,0,0,0,2-1.451l1.567-4.821a2.1,2.1,0,0,1,4-.019Z" transform="translate(-321.327 -199.708)"/><rect class="g" width="134.286" height="6.938" transform="translate(152.495 153.404)"/><rect class="g" width="97.85" height="6.938" transform="translate(170.71 168.084)"/><path class="m" d="M692.686,673.585a1.444,1.444,0,0,0,1.441-1.407c.352-13.023,5.159-21.77,9.427-21.77s9.077,8.734,9.433,21.77a1.444,1.444,0,0,0,2.885-.078c-.377-14.012-5.674-24.58-12.318-24.58s-11.935,10.568-12.315,24.58a1.441,1.441,0,0,0,1.407,1.482Z" transform="translate(-362.676 -329.756)"/><ellipse class="n" cx="22.15" cy="22.15" rx="22.15" ry="22.15" transform="translate(314.207 337.303) rotate(-13.28)"/><ellipse class="o" cx="22.15" cy="22.15" rx="22.15" ry="22.15" transform="translate(308.912 337.303) rotate(-13.28)"/><ellipse class="n" cx="2.979" cy="2.979" rx="2.979" ry="2.979" transform="translate(343.196 339.225)"/><ellipse class="n" cx="2.979" cy="2.979" rx="2.979" ry="2.979" transform="translate(321.978 339.225)"/><path class="p" d="M675.653,673.585a1.445,1.445,0,0,0,1.444-1.407c.352-13.023,5.159-21.77,9.427-21.77s9.077,8.734,9.43,21.77a1.445,1.445,0,0,0,2.889-.078c-.381-14.012-5.674-24.58-12.318-24.58s-11.935,10.568-12.315,24.58a1.441,1.441,0,0,0,1.407,1.482Z" transform="translate(-350.958 -329.756)"/><rect class="h" width="9.405" height="13.912" transform="translate(360.099 361.999)"/><rect class="q" width="12.387" height="26.842" transform="translate(376.363 349.069)"/><path class="r" d="M774.736,652.628s-4.367,1.575-11.663,7.037c-.24.168-.484.343-.717.515a32.926,32.926,0,0,0-6.862,6.732,28.787,28.787,0,0,0-4.1,7.577,20.729,20.729,0,0,0-1.176,4.757v.1l-4.121-.022-19.315-.1a29.012,29.012,0,0,1-1.419-4.741c-.368-1.981-.427-4.055.68-4.857a56.8,56.8,0,0,1,5.481-3.266c3.325-1.872,7.071-3.943,8.491-5.225a.9.9,0,0,0,.159-.212c.471-.833.9-3.413,1.291-7.006.231-2.093.443-4.532.643-7.174.168-2.261.328-4.679.477-7.128s.278-4.879.4-7.305c.094-1.918.184-3.815.268-5.643s.156-3.6.221-5.247c.09-2.218.165-4.239.228-5.955.128-3.572.2-5.833.2-5.833l9.6-.368-.368,2.779.112.019,10.843,1.56,7.018,1s-2.059,13.235-.855,20.035c1.148,6.382,4.093,16.614,4.451,17.852Z" transform="translate(-385.992 -303.437)"/><g class="l" transform="translate(345.525 305.839)"><path class="s" d="M767.227,612.069l.119.019c-2.411,14.5-8.182,48.6-9.23,51.359-1.341,3.537-6.666,5.711-9.582,5.711-1.513,0-2.427-1.416-2.913-2.776,3.322-1.872,7.075-3.946,8.491-5.228,2.43-2.183,3.887-51.494,3.887-51.494l9.6-.371Z" transform="translate(-745.62 -609.29)"/></g><path class="j" d="M834.362,718.819a1.173,1.173,0,0,1-.146,0,.936.936,0,0,1-.783-1.076,21.461,21.461,0,0,1,9.7-15.172.941.941,0,0,1,.911,1.647h0a19.916,19.916,0,0,0-8.756,13.818A.936.936,0,0,1,834.362,718.819Z" transform="translate(-460.507 -367.553)"/><path class="q" d="M756.009,818.35v4.86h-9.4v-.019l-19.315-.1a29.022,29.022,0,0,1-1.419-4.741Z" transform="translate(-386.505 -447.298)"/><path class="j" d="M771.787,773.866a.845.845,0,0,1-.231-.031l-10.362-2.589a.942.942,0,1,1,.455-1.828l10.362,2.592a.943.943,0,1,1-.225,1.872Z" transform="translate(-410.319 -413.611)"/><path class="j" d="M776.457,751.529a.97.97,0,0,1-.231-.028l-10.362-2.6a.942.942,0,0,1,.455-1.828l10.365,2.592a.936.936,0,0,1-.228,1.853Z" transform="translate(-413.532 -398.239)"/><path class="j" d="M781.131,729.223a.937.937,0,0,1-.228-.028L770.538,726.6a.94.94,0,1,1,.455-1.825l10.365,2.592a.936.936,0,0,1-.228,1.853Z" transform="translate(-416.749 -382.895)"/><path class="j" d="M783.73,706.643a.965.965,0,0,1-.231-.028l-10.362-2.592a.94.94,0,1,1,.455-1.825l10.362,2.589a.943.943,0,1,1-.225,1.872Z" transform="translate(-418.538 -367.358)"/><path class="j" d="M783.211,682.763a.978.978,0,0,1-.231-.028l-10.362-2.592a.94.94,0,0,1,.455-1.825l10.365,2.589a.943.943,0,1,1-.228,1.872Z" transform="translate(-418.18 -350.927)"/><path class="j" d="M785.8,665.132a.936.936,0,0,1-.228-.028l-10.365-2.592a.941.941,0,0,1,.458-1.825l10.362,2.589a.943.943,0,1,1-.228,1.872Z" transform="translate(-419.965 -338.796)"/><path class="j" d="M787.361,648.523a.94.94,0,0,1-.228-.028l-10.365-2.583a.94.94,0,0,1,.455-1.825l10.365,2.589a.943.943,0,1,1-.228,1.872Z" transform="translate(-421.036 -327.375)"/><path class="j" d="M789.7,629.813a.971.971,0,0,1-.231-.028l-10.362-2.592a.94.94,0,0,1,.456-1.825l10.362,2.589a.936.936,0,0,1-.225,1.856Z" transform="translate(-422.646 -314.493)"/><rect class="h" width="9.405" height="13.912" transform="translate(390.574 361.999)"/><rect class="q" width="12.387" height="26.839" transform="translate(406.839 349.069)"/><path class="r" d="M872.388,652.642s-4.367,1.575-11.66,7.034a33.2,33.2,0,0,0-7.577,7.249,28.717,28.717,0,0,0-4.114,7.577,19.943,19.943,0,0,0-1.185,4.86l-4.118-.019-19.318-.1A28.83,28.83,0,0,1,823,674.5c-.371-1.981-.427-4.055.68-4.857a56.124,56.124,0,0,1,5.478-3.263c3.325-1.872,7.075-3.946,8.494-5.228,2.427-2.183,3.887-51.494,3.887-51.494l9.6-.371-.368,2.779.115.019,17.858,2.545s-2.059,13.235-.855,20.035S872.388,652.642,872.388,652.642Z" transform="translate(-453.172 -303.451)"/><g class="l" transform="translate(375.998 305.839)"><path class="s" d="M864.92,612.069l.116.019c-2.408,14.5-8.182,48.6-9.23,51.359-1.341,3.537-6.666,5.711-9.579,5.711-1.516,0-2.43-1.416-2.917-2.776,3.325-1.872,7.075-3.946,8.494-5.228,2.427-2.183,3.887-51.494,3.887-51.494l9.6-.371Z" transform="translate(-843.31 -609.29)"/></g><path class="j" d="M932.052,718.819h-.146a.936.936,0,0,1-.783-1.076,21.471,21.471,0,0,1,9.7-15.172.941.941,0,0,1,.911,1.647,19.928,19.928,0,0,0-8.756,13.818A.936.936,0,0,1,932.052,718.819Z" transform="translate(-527.725 -367.553)"/><path class="j" d="M869.477,773.866a.821.821,0,0,1-.228-.031l-10.365-2.589a.942.942,0,1,1,.455-1.828L869.7,772.01a.943.943,0,0,1-.228,1.872Z" transform="translate(-477.537 -413.611)"/><path class="j" d="M874.15,751.528a.941.941,0,0,1-.228-.028l-10.365-2.6a.942.942,0,0,1,.458-1.828l10.362,2.592a.936.936,0,0,1-.228,1.853Z" transform="translate(-480.752 -398.238)"/><path class="j" d="M878.807,729.223a.935.935,0,0,1-.237-.028L868.207,726.6a.94.94,0,1,1,.455-1.825l10.362,2.592a.936.936,0,0,1-.228,1.853Z" transform="translate(-483.952 -382.895)"/><path class="j" d="M881.421,706.643a.937.937,0,0,1-.228-.028l-10.365-2.592a.94.94,0,1,1,.455-1.825l10.365,2.589a.943.943,0,0,1-.228,1.872Z" transform="translate(-485.755 -367.358)"/><path class="j" d="M880.9,682.762a.934.934,0,0,1-.228-.028l-10.365-2.592a.941.941,0,0,1,.459-1.825l10.362,2.589a.943.943,0,0,1-.228,1.872Z" transform="translate(-485.4 -350.926)"/><path class="j" d="M883.5,665.133a.972.972,0,0,1-.228-.028l-10.362-2.592a.94.94,0,0,1,.455-1.825l10.362,2.589a.943.943,0,1,1-.228,1.872Z" transform="translate(-487.186 -338.797)"/><path class="j" d="M885.033,648.523a.938.938,0,0,1-.228-.028l-10.378-2.583a.94.94,0,1,1,.455-1.825l10.362,2.589a.943.943,0,0,1-.228,1.872Z" transform="translate(-488.232 -327.375)"/><path class="j" d="M887.391,629.813a.936.936,0,0,1-.228-.028L876.8,627.193a.94.94,0,1,1,.455-1.825l10.365,2.589a.936.936,0,0,1-.228,1.856Z" transform="translate(-489.863 -314.493)"/><path class="q" d="M853.681,818.35v4.86h-9.417v-.019l-19.318-.1a28.835,28.835,0,0,1-1.416-4.741Z" transform="translate(-453.702 -447.298)"/><path class="t" d="M261.918,551.23c-26.847,0-48.7,25.026-48.7,55.793q0,1.809.1,3.585h10.764c-.087-1.184-.124-2.38-.124-3.585,0-24.839,17.019-45.021,37.938-45.021s37.963,20.182,37.963,45.021c0,1.2-.037,2.4-.124,3.585H310.52q.1-1.776.1-3.585C310.619,576.256,288.773,551.23,261.918,551.23Z" transform="translate(-124.587 -293.828)"/><path class="u" d="M135.189,750.429h0a2.236,2.236,0,0,1-2.339-2.111V691.44h11.8l-7.137,57.13a2.269,2.269,0,0,1-2.322,1.859Z" transform="translate(-77.489 -375.993)"/><path class="t" d="M198.8,750.429h0a2.111,2.111,0,0,1-2.111-2.111V691.44h10.664L200.9,748.57A2.111,2.111,0,0,1,198.8,750.429Z" transform="translate(-114.9 -375.993)"/><path class="u" d="M348.408,750.429h0a2.219,2.219,0,0,0,2.31-2.111V691.44H339.06l7.038,57.13a2.244,2.244,0,0,0,2.31,1.859Z" transform="translate(-198.331 -375.993)"/><path class="t" d="M437.553,750.429h0a2.111,2.111,0,0,0,2.111-2.111V691.44H429l6.454,57.13A2.111,2.111,0,0,0,437.553,750.429Z" transform="translate(-251.037 -375.993)"/><path class="n" d="M189.846,508.343l-19.085-91.905a17.176,17.176,0,0,0-18.1-13.653v-.054H111.681a17.357,17.357,0,0,0-3.515.364,16.655,16.655,0,0,0-1.656.414V425.93H116.3l21.358,82.433,17.081-.161,1.482,7.125a17.176,17.176,0,0,0,20.31,13.326h0A17.181,17.181,0,0,0,189.846,508.343Z" transform="translate(-62.054 -206.806)"/><path class="n" d="M314.555,647.049a17.172,17.172,0,0,1-17.181,17.172H221.491a17.181,17.181,0,1,1,0-34.361h75.884a17.177,17.177,0,0,1,17.181,17.193Z" transform="translate(-119.366 -339.906)"/><rect class="o" width="110.237" height="34.357" rx="17.178" transform="translate(52.483 289.962)"/><path class="o" d="M117.21,528.711a17.6,17.6,0,0,1-3.511.36,17.172,17.172,0,0,1-16.8-13.686L77.819,423.48a17.168,17.168,0,0,1,11.67-19.871,16.655,16.655,0,0,1,1.656-.414,17.152,17.152,0,0,1,20.314,13.322l1.979,9.522,17.106,82.384A17.185,17.185,0,0,1,117.21,528.711Z" transform="translate(-45.029 -206.864)"/><path class="v" d="M310.279,377.963l-3.726-.025a13.432,13.432,0,0,0,.414-6.409,27.268,27.268,0,0,1-3.424,6.38l-10.942-.087c-2.124-7.357.041-8.694,2.024-14.076s1.751-8.727,1.751-8.727l11.55,2.873a11.46,11.46,0,0,0,.1,6.674C311.368,372.813,310.279,377.963,310.279,377.963Z" transform="translate(-170.593 -178.847)"/><circle class="v" cx="16.924" cy="16.924" r="16.924" transform="translate(104.211 157.593)"/><path class="w" d="M288.506,426.687q0,.6-.05,1.217c-.021.269-.058.542-.1.828a2.855,2.855,0,0,1-.062.414c-.046.277-.1.563-.166.828s-.128.571-.2.865-.157.588-.248.894-.186.613-.294.931-.215.633-.335.96c-.033.1-.066.19-.108.29a1.284,1.284,0,0,1-.074.224c-.054.17-.137.335-.2.505l-.161,1.213-2.368,10.909v.025l-.985,4.554v.075l.124,3.395v.219l.037,1.138.075,2.016.137,3.726.033.985-10.06.058h-3.945l-7.973.046-3.78.033c.05-.625-.36-3.85-.36-3.85q.037-.58.062-1.18c.025-.625.054-1.242.07-1.9v-.054c.758-.787-1.586-11.753-2.749-15.454-.219-.8-.455-1.635-.7-2.484-.19-.679-.385-1.37-.575-2.07v-.033c-.17-.609-.339-1.242-.513-1.846-.654-2.343-1.321-4.757-1.958-7.071a98.894,98.894,0,0,1-1.656-14.254l2.26-.77,3.593-1.217,2.07-.7,3.622-1.242.617.414a10.45,10.45,0,0,0,.969.559,11.424,11.424,0,0,0,11.939-.923l.054-.046,5.158.969,3.254.617.907,2.107,2.989,6.984c.215.5.414.981.575,1.449.058.161.116.315.166.468.1.311.2.609.29.9A15.07,15.07,0,0,1,288.506,426.687Z" transform="translate(-145.807 -210.427)"/><path class="x" d="M274.026,362.419c-.368,1.267-2.873,1.656-5.593.857s-4.483-2.393-4.26-3.726c.294-1.768,2.869-1.656,5.589-.861S274.378,361.157,274.026,362.419Z" transform="translate(-154.435 -180.674)"/><path class="w" d="M290.027,387.2a8.118,8.118,0,0,1-1.842,4.19c-1.73,2.165-5.067,7.737-12.979,5.324a11.247,11.247,0,0,1-8.127-10.01c1.552-.393,3.494-.48,4.21-1.383.9-1.126.567-10.039.344-14.448-.075-1.486-.137-2.459-.137-2.459l13.041,5.332s-.161,3.643-.248,6.595a31.319,31.319,0,0,0,0,3.622C284.641,386.456,290.027,387.2,290.027,387.2Z" transform="translate(-156.15 -186.694)"/><path class="v" d="M258.3,377.993l-2.629-.021a10.455,10.455,0,0,0,.927-3.374,24.3,24.3,0,0,1-3.188,3.357l-6.247-.05c-2.852-3.051-3.159-8.545-3.159-8.545-1.7,5.026-.435,7.609.228,8.52l-3.627-.029c-2.12-7.357.046-8.694,2.029-14.076s1.764-8.706,1.764-8.706l6.512,5.258,4.339,1.581C262.17,372.429,258.3,377.993,258.3,377.993Z" transform="translate(-140.124 -178.876)"/><path class="x" d="M290.791,373.742s-.161,3.643-.248,6.595a6.918,6.918,0,0,1-2.778.455c-6.943-.559-10.014-12.382-10.014-12.382Z" transform="translate(-162.402 -186.694)"/><path class="w" d="M273.66,341.558c.1,1.027.219,2.14.319,3.25.795,8.781,5.957,15.479,12.03,14.933,4.554-.414,7.932-4.26,8.979-9.886.029-.157.058-.323.083-.488a22.065,22.065,0,0,0,.257-4.086,4.4,4.4,0,0,0-.029-.617c0-.286-.033-.575-.062-.865-.19-2.095-.542-4.968-.948-6.93a1.449,1.449,0,0,0-1.925-1.085c-.621.224-1.366.493-2.248.787-3.225,1.093-8.9.638-12.858.861a3.8,3.8,0,0,0-3.6,4.127Z" transform="translate(-159.997 -167.521)"/><path class="y" d="M298.88,375.848s3.312-1.242,3.954-1.01l.638.24a1.733,1.733,0,0,1,.638-.5,22.863,22.863,0,0,1,2.347,0,4.1,4.1,0,0,1-.489,2.848,1.265,1.265,0,0,1-.112.149,3.854,3.854,0,0,1-4.645,1.114,4.642,4.642,0,0,1-.977-.724A5.768,5.768,0,0,1,298.88,375.848Z" transform="translate(-174.785 -190.29)"/><path class="d" d="M306.456,374.64a11.216,11.216,0,0,1-7.576,1.263,4.645,4.645,0,0,0,4.695,2.24C306.274,377.687,306.456,374.64,306.456,374.64Z" transform="translate(-174.785 -190.345)"/><path class="x" d="M307.487,364.147l.555-.149c.373-.1.609-.414.505-.646l-.787-1.851a.613.613,0,0,0-.733-.224h0c-.327.091-.555.331-.53.563l.232,2C306.758,364.106,307.118,364.247,307.487,364.147Z" transform="translate(-179.248 -182.489)"/><path class="z" d="M291.093,356.025c.1.58.513.994.936.923a.961.961,0,0,0,.6-1.176c-.091-.58-.513-.994-.936-.923A.957.957,0,0,0,291.093,356.025Z" transform="translate(-170.21 -178.742)"/><path class="v" d="M290.011,348.28a1.576,1.576,0,0,0-.178-.236,2.709,2.709,0,0,0-.584-.509,3,3,0,0,0-.46-.244,3.116,3.116,0,0,0-.555-.186,3.076,3.076,0,0,0-.625-.079,2.94,2.94,0,0,0-.658.046,3.34,3.34,0,0,0-.633.174c-.2.083-.385.19-.563.286a2.9,2.9,0,0,0-.46.36,3.249,3.249,0,0,0-.348.385,1.923,1.923,0,0,0-.248.356,2.976,2.976,0,0,0-.153.3,2.116,2.116,0,0,0-.116.269s.1-.037.265-.116c.083-.037.178-.083.281-.141a3.231,3.231,0,0,1,.356-.166c.132-.054.257-.137.414-.19s.294-.116.443-.178.311-.1.468-.149a2.186,2.186,0,0,1,.488-.1,3.333,3.333,0,0,1,.493-.062c.166-.025.331,0,.493-.025a1.66,1.66,0,0,1,.476.021c.153.021.3.021.439.041.277.029.518.07.691.1Z" transform="translate(-166.317 -174.161)"/><path class="z" d="M315.793,351.595c.1.58.513.994.936.923a.961.961,0,0,0,.6-1.176c-.091-.58-.513-.994-.936-.923A.957.957,0,0,0,315.793,351.595Z" transform="translate(-184.685 -176.146)"/><path class="v" d="M314.711,343.848a1.46,1.46,0,0,0-.178-.24,2.7,2.7,0,0,0-.584-.505,3.408,3.408,0,0,0-.459-.248,3.116,3.116,0,0,0-.555-.182,2.589,2.589,0,0,0-.625-.079,2.71,2.71,0,0,0-.658.041,3.683,3.683,0,0,0-.633.178,4.768,4.768,0,0,0-.563.286c-.166.116-.319.244-.46.36a3.252,3.252,0,0,0-.348.385,1.685,1.685,0,0,0-.248.356,2.962,2.962,0,0,0-.153.3,2.282,2.282,0,0,0-.116.273l.265-.116c.083-.041.178-.083.282-.141s.228-.108.356-.17a3.537,3.537,0,0,1,.414-.186c.157-.054.294-.116.443-.178s.31-.1.468-.149a2.188,2.188,0,0,1,.488-.1,4.021,4.021,0,0,1,.493-.066c.166-.021.331,0,.493-.021a3.66,3.66,0,0,1,.476,0l.439.041c.277.029.517.07.691.1Z" transform="translate(-180.791 -171.562)"/><g class="l" transform="translate(118.962 179.714)"><path class="x" d="M286.555,366.49a2.314,2.314,0,1,0,1.71-2.857,2.339,2.339,0,0,0-1.71,2.857Z" transform="translate(-286.481 -363.573)"/></g><g class="l" transform="translate(132.526 177.083)"><path class="x" d="M319.314,360.137a2.351,2.351,0,0,0,2.484,1.842,22.063,22.063,0,0,0,.257-4.086,4.4,4.4,0,0,0-.029-.617,2.121,2.121,0,0,0-.994,0A2.372,2.372,0,0,0,319.314,360.137Z" transform="translate(-319.245 -357.217)"/></g><path class="aa" d="M330.732,436.7c.116.211.232.439.352.658,1.685,3.179,3.221,7.013,4.968,10.081.066.12.166.306.3.526a1.035,1.035,0,0,0,.1.166,12.345,12.345,0,0,0,2.732,3.246c.116.087.236.166.352.244a4.186,4.186,0,0,0,.36.219l.074.041h0a2.508,2.508,0,0,0,.335.166,1.468,1.468,0,0,0,.186.075,3.048,3.048,0,0,0,.468.141,8.279,8.279,0,0,0,3.4.046,4.06,4.06,0,0,0,.6-.468c1.809-1.594,4.608-5.639,4.351-7.866-.575-4.811,1.42,1.689-4.471-8.868l-.141-.253c-.24-.414-.493-.89-.758-1.374-3.478-6.4-7.1-13.72-10.047-17.479-2.414-3.072-4.525-3.184-4.525-3.184S327.068,429.719,330.732,436.7Z" transform="translate(-192.234 -212.718)"/><path class="aa" d="M227.05,452.026v.046a6.581,6.581,0,0,0,1.71,3.515c.132.174,2.828,1.519,6.52,3.312a49.286,49.286,0,0,0,4.968-11.087,54.549,54.549,0,0,0,1.59-6.007c1.523-7.742-5.514-23.274-5.514-23.274s-1.834.211-3.432,3.643c-1.312,2.811-2.285,8.185-3.6,14a89.479,89.479,0,0,0-2.2,14.821C227.075,451.351,227.058,451.686,227.05,452.026Z" transform="translate(-132.692 -216.065)"/><path class="aa" d="M288.477,428.116q0,.6-.05,1.217c-.021.269-.058.542-.1.828a2.86,2.86,0,0,1-.062.414c-.046.277-.1.563-.166.828s-.128.571-.2.865-.157.588-.248.894-.186.613-.294.931-.215.633-.335.961c-.033.1-.066.19-.108.29a1.287,1.287,0,0,1-.074.224c-.054.17-.137.335-.2.505l-.161,1.213-1.788,16.382-.277,2.55-.029.24-.335,3.092-.435,3.978-.124-.17-.029-.037-25.945-.2c0-.066-1.577-17.359-2.741-21.06-.265-.828-.5-1.681-.7-2.484s-.373-1.461-.575-2.07v-.033c-.066-.228-.145-.439-.219-.642a52.113,52.113,0,0,1-2.252-8.28A98.905,98.905,0,0,1,249.38,414.3l2.26-.77,3.593-1.217,2.07-.7a6.863,6.863,0,0,0,4.9,6.74.111.111,0,0,1,.05,0,16.758,16.758,0,0,0,6.363.77,17.54,17.54,0,0,0,4.637-.828l.137-.045c5.874-2.07,6.272-6.9,6.272-6.9l3.254.617.907,2.107,2.989,6.984c.215.5.414.981.575,1.449.058.161.116.315.166.468.1.31.2.609.29.9A15.07,15.07,0,0,1,288.477,428.116Z" transform="translate(-145.777 -211.857)"/><path class="v" d="M272.68,344.655s2,.828,3.258-.236,1.929-5.572,4.628-6.375,3.341-.861,8.371-.464,5.518-.571,5.518-.571l-.414-.828a1.619,1.619,0,0,0-1.888-.8,19.366,19.366,0,0,1-2.157.46,52.712,52.712,0,0,1-9.108.041l-4.637.108a3.287,3.287,0,0,0-1.5.414h0a3.237,3.237,0,0,0-1.656,2.811Z" transform="translate(-159.431 -167.298)"/><path class="ab" d="M318.38,330.007s-.041-3.507-1.068-4.707-.737.716-.265,1.822-1.093.646-1.292-.261-1.151.414-.874,1.8-1.308-.178-1.437.505a1.444,1.444,0,0,0,1.888,1.263c.894-.393-.344-1.656.828-1.3s1.064.327,1.35-.207.364,1.213.7,1.362C318.409,330.383,318.38,330.007,318.38,330.007Z" transform="translate(-183.314 -161.207)"/><path class="ab" d="M254.292,342.028a.161.161,0,0,1-.3-.116,19.086,19.086,0,0,1,.414-3.54c.7-2.451,1.966-4.6,2.07-3.362.161,2.455-1.018,3.676.364,3.229s1.751-2.36,2.24-.774.244,2.12,1.387,1.793,2.252-2.525,1.942-.853.7,2.7,1.437,1.718.414,1.962-.977,1.159a2.07,2.07,0,0,1-1.151-1.528.157.157,0,0,0-.265-.1,2.484,2.484,0,0,1-1.772.667c-.8-.054-1.118-.869-1.242-1.424a.161.161,0,0,0-.294-.054,1.569,1.569,0,0,1-1.594.861C255.762,339.59,254.888,340.911,254.292,342.028Z" transform="translate(-148.478 -166.911)"/><path class="ac" d="M318.31,469.379l2.1.787a13.062,13.062,0,0,0,6.466.708l.145-1.221c.062-.17.141-.335.2-.5a1.62,1.62,0,0,0,.074-.228c.037-.1.075-.195.108-.294l-.07.033a13.11,13.11,0,0,1-6.433.977Z" transform="translate(-186.171 -245.424)"/><path class="ac" d="M285.043,470.526h-.629a5.756,5.756,0,0,0-.716.033c-.273.033-.563.021-.882.033s-.671.033-1.035.033h-2.956l-.617-.029c-.207,0-.414-.021-.617-.033a4.41,4.41,0,0,1-.617-.041l-.6-.05c-.2-.021-.414-.046-.592-.058s-.385-.05-.575-.066-.373-.033-.555-.062c-.36-.046-.708-.079-1.027-.132s-.617-.079-.882-.116l-.7-.091c-.389-.054-.629-.066-.629-.066a5.658,5.658,0,0,0,.472.414,5.236,5.236,0,0,0,.6.464c.112.083.24.161.368.248l.414.244a9.839,9.839,0,0,0,1,.484,10.942,10.942,0,0,0,1.18.414,10.613,10.613,0,0,0,1.3.29c.224.041.451.07.683.091s.46.05.691.054h.691a4.753,4.753,0,0,0,.687-.033c.228-.033.451-.041.671-.066a6.441,6.441,0,0,0,.65-.1c.215-.041.414-.079.625-.128s.414-.108.588-.166c.377-.108.724-.257,1.043-.381s.6-.29.853-.414a5.033,5.033,0,0,0,.6-.381c.166-.112.3-.211.381-.273Z" transform="translate(-158.687 -246.156)"/><rect class="ac" width="1.031" height="19.143" transform="translate(103.809 205.45) rotate(-12.6)"/><path class="ac" d="M334.8,441.476l-.058-1.027.029.513-.029-.513a4.4,4.4,0,0,0,2.9-1.552c.94-1.192,1.209-2.956.8-5.241A72.492,72.492,0,0,0,334.39,419.8l.952-.414a74.278,74.278,0,0,1,4.115,14.076c.46,2.6.116,4.641-1.023,6.073A5.34,5.34,0,0,1,334.8,441.476Z" transform="translate(-195.594 -216.569)"/><path class="w" d="M323.765,577.293c-.025.356-.054.72-.083,1.081,0,.244-.041.489-.058.737-.079.828-.157,1.656-.248,2.509h-.157c-.414.021-.956.033-1.656.029-2.7,0-7.477-.162-13.215-.563-.828-.054-1.631-.112-2.484-.178-.762-.058-1.528-.124-2.314-.19l.021-.505h-.161v-4.14H268.192c-2.977-.621-5.316-1.507-6.7-3.043h0l-1.561-3.374c-1.511-8.168,3-30.585,3.237-31.786v-.05l18.654-.1,1.043.584c.385.211.8.447,1.242.7l.923.489,1.006.567,1.072.613,1.134.65.592.34,1.221.708,1.921,1.114.662.389c4.21,2.484,8.979,5.345,13.484,8.234l2.111,1.37q1.391.915,2.716,1.813c.443.3.878.6,1.3.894s.849.592,1.242.886a71.013,71.013,0,0,1,6.732,5.287c.174.157.339.311.5.464a15.712,15.712,0,0,1,1.884,2.107c.087.128.166.253.244.377a3.307,3.307,0,0,1,.19.348,7.977,7.977,0,0,1,.638,2.231c.062.414.112.828.153,1.271.025.3.046.613.066.936A59.856,59.856,0,0,1,323.765,577.293Z" transform="translate(-151.78 -285.911)"/><path class="w" d="M396.045,621.529c.869,7.572,4.426,19.6,7.783,30.035q.31.96.621,1.9c.12.377.244.753.36,1.122.248.762.493,1.5.737,2.235,1.9,5.771,3.564,10.594,4.372,13.206h0a9.939,9.939,0,0,1,.588,2.857,10.766,10.766,0,0,1-.145,1.37h0c-.638,3.829-2.968,6.065.29,9.083A21.7,21.7,0,0,0,414,685.76h0a3.413,3.413,0,0,1,.447.261h0c3.838,2.273,8.532,4.314,10.147,5.953,2.248,2.273,13.306,1.685,12.37-.186a2.071,2.071,0,0,0-.393-.505h0c-1.242-1.4-4.968-4.492-8.785-8.156h0c-4.533-4.372-9.207-9.522-9.936-13.484-.53-2.819-1.267-7.68-1.9-14.076q-.174-1.656-.319-3.453c-.153-1.809-.294-3.726-.414-5.721q-.112-1.776-.2-3.643v-.219c-.141-2.989-.244-6.144-.29-9.451-.041-3.088-.306-12.8-.526-20.124-.315-1.817-.646-3.477-1-4.931a29.633,29.633,0,0,0-.931-3.142h0l-1.383-1.615h0l-2.223-2.558h0l-1.242.414-.228.075h0l-.542.182-9.108,3.039S394.786,610.666,396.045,621.529Z" transform="translate(-231.532 -322.824)"/><path class="ad" d="M438.738,805.945l-.389,9.878-.857.1-.352-10.433Z" transform="translate(-255.807 -442.827)"/><path class="ae" d="M426.93,798.89l2.931,13.355,1.652-.195-.05-10.238Z" transform="translate(-249.823 -438.96)"/><path class="ad" d="M454.56,789.232a1.4,1.4,0,0,1-1.221,1.432l-11.592,1.407c-.294.033-3.068-2.654-5.8-4.968s-10.391-3.9-12.068-6.955c-1.267-2.306.149-8.466.919-11.347.253-.94.435-1.532.435-1.532a23.8,23.8,0,0,1,5.481,3.312c2.331,2.016,4.1,7.895,5.8,9.522s7.038.737,8.561.559c1.089-.128,6.173,4.757,9.058,7.634A1.387,1.387,0,0,1,454.56,789.232Z" transform="translate(-247.741 -420.43)"/><path class="ae" d="M456.6,789.209a44.14,44.14,0,0,1-15.533-5.183,36.3,36.3,0,0,1-14.208-15.264c.253-.94.435-1.532.435-1.532a23.8,23.8,0,0,1,5.481,3.312c2.331,2.016,4.1,7.895,5.8,9.522s7.038.737,8.561.559c1.089-.128,6.173,4.757,9.058,7.634A1.387,1.387,0,0,1,456.6,789.209Z" transform="translate(-249.782 -420.407)"/><path class="x" d="M396.043,622.086c.869,7.572,4.425,19.6,7.783,30.035q.311.96.621,1.9c.12.377.244.754.36,1.122.248.762.493,1.5.737,2.235l10.4-1.242q-.174-1.656-.319-3.453c-.153-1.809-.294-3.726-.414-5.721q-.112-1.776-.2-3.643V643.1c-.141-2.989-.244-6.144-.29-9.451-.041-3.088-.306-12.8-.526-20.124-.315-1.817-.646-3.477-1-4.931l-.1-.244c-.774-1.871-2.857-4.181-5.7-6.694l-.228.075h0l-.542.182-9.108,3.039S394.784,611.223,396.043,622.086Z" transform="translate(-231.53 -323.381)"/><path class="ad" d="M294.37,534.6l1.408,19.838,35.7,13.62,11.269,46.963,2.318-.277,11.178-1.333,2.231-.269s-1.155-24.293-3.672-38.89a48.854,48.854,0,0,0-1.929-8.073h0c-.066-.157-.124-.315-.186-.464-3.991-9.634-42.322-30.875-42.322-30.875Z" transform="translate(-172.142 -284.083)"/><path class="w" d="M355.763,673.339a19.8,19.8,0,0,0,2.223,3.482h0a4.876,4.876,0,0,1,.319.414c2.728,3.531,6.342,7.158,7.245,9.277,1.242,2.939,11.753,6.462,11.592,4.376a2.44,2.44,0,0,0-.182-.617h0c-.658-1.759-2.972-6.007-5.175-10.813h0c-2.625-5.746-5.067-12.246-4.31-16.208.476-2.451,1.37-6.371,2.753-11.414.273-.977.555-1.987.861-3.047,1.093-3.784,9.389-46.781,7.866-49.074-1.623-2.484-6.21-5.825-6.21-5.825s-5.622,2.426-7.725,7.5a47.831,47.831,0,0,0-1.991,5.941,65.47,65.47,0,0,0-1.2,6.491c-.575,6.794-1.072,23.237-1.437,34.8-.033,1.06-.062,2.07-.091,3.055-.137,4.554-.261,7.907-.335,8.988h0a9.884,9.884,0,0,1-.505,2.869,9.382,9.382,0,0,1-.642,1.242h0C356.823,668.11,353.842,669.327,355.763,673.339Z" transform="translate(-207.756 -318.828)"/><path class="ae" d="M349.536,782.59l-2.186,13.5,1.606.426,3.722-9.542Z" transform="translate(-203.189 -429.408)"/><path class="ad" d="M356.057,793.49l-3.991,9.042-.836-.219,3.515-9.832Z" transform="translate(-205.462 -435.203)"/><path class="ad" d="M375.864,784.754a1.4,1.4,0,0,1-1.656.886l-11.281-2.952c-.286-.075-1.875-3.593-3.552-6.765s-8.23-7.452-8.665-10.909c-.327-2.608,3.254-7.816,5.03-10.213.58-.778.969-1.242.969-1.242a23.713,23.713,0,0,1,3.867,5.117c1.428,2.732.911,8.847,1.884,10.967s6.268,3.271,7.762,3.668c1.056.281,3.987,6.694,5.614,10.432A1.4,1.4,0,0,1,375.864,784.754Z" transform="translate(-205.146 -412.396)"/><path class="ae" d="M383,784.754a44.048,44.048,0,0,1-12.536-10.532,36.482,36.482,0,0,1-7.6-19.42c.58-.778.969-1.242.969-1.242a23.713,23.713,0,0,1,3.867,5.117c1.428,2.732.911,8.847,1.884,10.967s6.268,3.271,7.762,3.668c1.056.281,3.987,6.694,5.614,10.432A1.4,1.4,0,0,1,383,784.754Z" transform="translate(-212.284 -412.396)"/><path class="x" d="M367.64,653.429l9.911.153c.273-.977.555-1.987.861-3.047,1.093-3.784,2.43-8.073,4.045-12.726q.5-1.465,1.052-2.977h0q.186-.513.385-1.031c1.052-6.181,2.1-12.478,2.575-15.835a.187.187,0,0,1,0-.046c.629-6.653.683-12.233-.464-14.531a13.294,13.294,0,0,0-2.811-3.312c-1.089-.994-2.4-2.07-3.9-3.208-1.383.2-4.852,1.192-6.938,6.272a47.838,47.838,0,0,0-1.991,5.941c-.331,1.192-.629,2.484-.894,3.924-.108.53-.207,1.408-.306,2.567-.575,6.794-1.072,23.237-1.437,34.8C367.7,651.434,367.669,652.46,367.64,653.429Z" transform="translate(-215.079 -320.574)"/><path class="ae" d="M323.11,575.453c-.025.356-.054.716-.083,1.081,0,.244-.041.489-.058.737q-.112,1.242-.244,2.484a5.352,5.352,0,0,1-.062.559c-.041.315-.091.662-.145,1.072a.141.141,0,0,0,0,.041c-.476,3.357-1.523,9.654-2.575,15.831-1.461,8.516-2.931,16.791-2.931,16.791l-2.55-.037-10.681-.161-2.269-.041s1.358-35.458,1.242-35.462h0a4.14,4.14,0,0,0-4.14-4.14H266.381v.075c-2.4-.609-4.293-1.49-5.382-2.9a1.359,1.359,0,0,1-.157-.224h0a10.69,10.69,0,0,1-1.565-3.374c-2.534-8.9,1.863-26.657,3.242-31.786v-.05c.236-.878.377-1.37.377-1.37l16.473.277s.658.352,1.8.993l1.043.584c.385.211.8.447,1.242.7l.919.518,1.006.567,1.072.613,1.134.65.592.339c.414.228.807.468,1.221.708l1.921,1.114.662.389c4.21,2.484,8.979,5.345,13.484,8.234q1.068.683,2.111,1.37c.927.609,1.834,1.209,2.716,1.813q.666.447,1.3.894c.414.3.849.592,1.242.886a70.394,70.394,0,0,1,6.731,5.282c.174.157.339.315.5.468a15.7,15.7,0,0,1,1.884,2.107c.087.128.17.253.244.377a3.3,3.3,0,0,1,.195.348,7.862,7.862,0,0,1,.633,2.231c.062.414.112.828.153,1.271.025.3.05.613.066.936A59.844,59.844,0,0,1,323.11,575.453Z" transform="translate(-151.125 -284.071)"/><rect class="ae" width="27.191" height="4.111" transform="translate(138.519 250.927) rotate(180)"/><rect class="ad" width="25.274" height="0.94" transform="translate(112.582 251.221)"/><path class="w" d="M430.893,417.758s1.54-.534,1.027-1.586c-.468-.973-2.327-.919-2.327-.919s-.1-.985-1.544-1.287c-1.536-.323-8.462,1.242-9.48.414s1.5-1.523,2.4-2.343a6.169,6.169,0,0,0,1.366-2.376,34.366,34.366,0,0,0-7.278,3.614,60.259,60.259,0,0,0-7.295,7.2l-.414.46,4.773,5.133s.344-.207.878-.493h0a13.721,13.721,0,0,1,4.815-1.714c2.244-.116,10.085-1.3,10.66-1.809a2.8,2.8,0,0,0,.708-1.507,3.593,3.593,0,0,0,1.6-.853C431.262,419.145,430.893,417.758,430.893,417.758Z" transform="translate(-238.349 -210.867)"/><path class="w" d="M355.895,507.116h0l4.388.414a8.28,8.28,0,0,1-3.4-.045,3.047,3.047,0,0,1-.468-.141l-.166-.066h-.021a2.484,2.484,0,0,1-.331-.166h0l-.075-.041Z" transform="translate(-208.152 -267.95)"/><path class="w" d="M351.023,464.868c.116.087.236.166.352.244a4.2,4.2,0,0,0,.36.219h6.139a11.225,11.225,0,0,0,2.215-1.561,52.461,52.461,0,0,0,4.715-4.823q.658-.741,1.321-1.528c.679-.8,1.358-1.623,2.037-2.455.8-.985,1.6-1.975,2.368-2.964,4.475-5.738,8.2-11.091,8.2-11.091h0l-5.241-5.1h0c-.228.17-7.5,5.44-13.479,10.122-.6.472-1.184.94-1.751,1.391h0l-1.557,1.242c-1.043.865-1.962,1.656-2.687,2.314-.538.5-.973.919-1.275,1.267a13.12,13.12,0,0,0-.94,1.221c-.157.232-.306.472-.447.712a20.787,20.787,0,0,0-2.484,7.224l2.041,3.279a1.62,1.62,0,0,0,.124.244Z" transform="translate(-204.079 -226.191)"/><path class="x" d="M371.46,463.56l.025.037,6.553,11.592c1.11-1.242,2.24-2.608,3.366-3.987l-9.907-7.622Z" transform="translate(-217.317 -242.453)"/><path class="aa" d="M346.3,476.981s.033.058.087.166.166.306.3.526a1.032,1.032,0,0,0,.1.166,12.346,12.346,0,0,0,2.732,3.246c.116.087.236.166.352.244a4.2,4.2,0,0,0,.36.219l.075.041h0a2.512,2.512,0,0,0,.335.166,1.447,1.447,0,0,0,.186.074,3.043,3.043,0,0,0,.468.141,8.28,8.28,0,0,0,3.4.046,8.783,8.783,0,0,0,1.656-.468c5.059-1.888,8.565-7.514,8.565-7.514l-.315-.414-7.866-10.068-.029-.041-1.656,1.043-.8.5a14.793,14.793,0,0,0-3.751,3.312l-.439.555C347.981,471.521,346.333,473.673,346.3,476.981Z" transform="translate(-202.573 -242.423)"/><path class="w" d="M312.6,547.947s.907,1.354,1.793.588c.828-.7.294-2.484.294-2.484s.927-.348.849-1.822c-.079-1.565-3.345-7.866-2.84-9.058s1.859,1.068,2.9,1.722a6.323,6.323,0,0,0,2.645.716,34.4,34.4,0,0,0-5.353-6.115,60.36,60.36,0,0,0-8.818-5.212l-.551-.273-3.726,5.928s.286.273.7.72h0a13.911,13.911,0,0,1,2.9,4.219c.683,2.14,3.829,9.418,4.471,9.845a2.815,2.815,0,0,0,1.656.3,3.589,3.589,0,0,0,1.242,1.325C311.353,548.676,312.6,547.947,312.6,547.947Z" transform="translate(-175.318 -279.049)"/><path class="w" d="M226.987,489.7a5.039,5.039,0,0,0,0,.613v.046a6.581,6.581,0,0,0,1.71,3.515c.124.166,2.529,1.375,5.908,3.026l.613.3,2.115,1.031c8.421,4.074,20.029,9.559,20.426,9.741h0l3.589-6.371h-.025c-.356-.3-16.295-11.935-21.142-15.471l-1.374-1a7.452,7.452,0,0,0-5.2-1.221,10.282,10.282,0,0,0-3.838,1.242.033.033,0,0,0-.029.025,5.333,5.333,0,0,0-.915.828,9.17,9.17,0,0,0-1.759,3.283,2.9,2.9,0,0,0-.083.418Z" transform="translate(-132.649 -254.334)"/><path class="x" d="M245.45,501.485l.613.3,2.115,1.031,4.14-11.124Z" transform="translate(-143.474 -258.937)"/><path class="aa" d="M241.064,484.388l-2.484-2.674-7.452-2.484-3.883,1.114-.861,5.063s-.8,3.925,1.9,5.75a43.619,43.619,0,0,0,6.156,3.3Z" transform="translate(-132.236 -251.635)"/><path class="u" d="M221.923,594.219c-8.694-15.164-23.713-25.2-40.712-25.2-26.855,0-48.7,25.021-48.7,55.777,0,1.209.033,2.4.1,3.585h10.764c-.087-1.184-.124-2.376-.124-3.585,0-24.839,17.023-45.017,37.942-45.017,10.979,0,20.886,5.56,27.816,14.44A49.671,49.671,0,0,1,219.137,624.8c0,1.085-.037,2.616-.1,3.771H229.8c.058-1.155.087-2.687.087-3.771A61.308,61.308,0,0,0,221.923,594.219Z" transform="translate(-77.29 -304.254)"/><circle class="af" cx="24.91" cy="24.91" r="24.91" transform="translate(62.005 112.009)"/><path class="k" d="M205.649,311.82,197.4,326.1,189.16,311.82Z" transform="translate(-110.488 -153.531)"/><path class="ag" d="M184.839,245.71a4.6,4.6,0,0,1-2.977-1.089L169.2,233.912a4.608,4.608,0,1,1,5.949-7.038l9.812,8.28L207.1,212.339a4.605,4.605,0,1,1,5.651,7.274L187.666,244.75A4.62,4.62,0,0,1,184.839,245.71Z" transform="translate(-97.833 -94.666)"/><rect class="h" width="160.718" height="3.938" transform="translate(296.916 55.436)"/><ellipse class="h" cx="7.601" cy="7.601" rx="7.601" ry="7.601" transform="translate(285.907 49.806)"/><path class="ah" d="M587.419,103.145A7.6,7.6,0,1,1,575.843,94a7.6,7.6,0,0,0,11.576,9.159Z" transform="translate(-286.993 -42.59)"/><path class="d" d="M594.613,98.616c-.465.628-2.324.042-4.091-1.306s-2.845-2.952-2.371-3.58,2.325-.042,4.091,1.306S595.088,97.989,594.613,98.616Z" transform="translate(-295.099 -42.311)"/><ellipse class="h" cx="7.601" cy="7.601" rx="7.601" ry="7.601" transform="translate(449.568 49.806)"/><path class="ah" d="M939.436,103.145A7.6,7.6,0,1,1,927.865,94a7.6,7.6,0,0,0,11.572,9.159Z" transform="translate(-475.353 -42.59)"/><path class="d" d="M946.639,98.616c-.465.628-2.325.042-4.091-1.306s-2.85-2.952-2.376-3.58,2.325-.042,4.1,1.306S947.113,97.989,946.639,98.616Z" transform="translate(-483.462 -42.311)"/><rect class="n" width="2.166" height="26.523" transform="translate(343.416 76.362)"/><rect class="n" width="2.166" height="26.523" transform="translate(316.275 75.743)"/><path class="j" d="M679.48,94.6h-4.617a2.831,2.831,0,1,0-5.662.042v17.034H664.58V94.644a7.439,7.439,0,1,1,14.877-.042Z" transform="translate(-336.055 -38.943)"/><path class="j" d="M663.572,149.929a3.456,3.456,0,0,0-.465-.93,3.6,3.6,0,0,0-1.632-1.311l-3.682-1.511-8.526-3.5-20.321-8.326-2.427-.995-2.194.9L603.9,142.626l-12.334,5.054a3.575,3.575,0,0,0,1.357,6.881h67.2a3.529,3.529,0,0,0,3.5-2.882A3.639,3.639,0,0,0,663.572,149.929Zm-65.315,0L603.9,147.6l22.641-9.3,13.775,5.644,8.987,3.687,3.2,1.316,2.325.93Z" transform="translate(-295.799 -63.652)"/><rect class="p" width="31.47" height="25.654" transform="translate(314.987 122.955)"/><path class="af" d="M669.3,220.584s17.411,4.761,21.023-5.914a52.9,52.9,0,0,0,2.627-20.2S671.848,199.152,669.3,220.584Z" transform="translate(-338.581 -96.351)"/><path class="af" d="M641.959,220.849s-17.406,4.765-21.018-5.909a52.9,52.9,0,0,1-2.627-20.2S639.416,199.422,641.959,220.849Z" transform="translate(-311.239 -96.495)"/><path class="n" d="M705.833,165.5l-.056-21.167a2.757,2.757,0,0,0-2.72-2.729l-3.347-.033a.563.563,0,0,0-.572.567H697a2.724,2.724,0,0,1,2.752-2.734l3.347.033a4.923,4.923,0,0,1,4.84,4.9l.07,21.163Z" transform="translate(-353.403 -66.883)"/><path class="n" d="M620.346,165.506H618.18l.07-21.163a4.923,4.923,0,0,1,4.863-4.891l3.347-.033a2.724,2.724,0,0,1,2.752,2.734H627.05a.586.586,0,0,0-.167-.4.576.576,0,0,0-.4-.163h0l-3.347.033a2.748,2.748,0,0,0-2.715,2.72Z" transform="translate(-311.227 -66.894)"/><path class="af" d="M662,381.256H558.44l22.78-81.48c1.516-5.114,3-10.228,4.073-15.444a13.069,13.069,0,0,1,12.8-10.433h23.752a13.06,13.06,0,0,1,12.795,10.434c1.069,5.214,2.557,10.333,4.077,15.442Z" transform="translate(-279.261 -138.853)"/><path class="p" d="M732.37,427.456H717.865L715.28,360.24Z" transform="translate(-363.184 -185.053)"/><path class="p" d="M662.209,435.386H654.32L662,375.06Z" transform="translate(-330.565 -192.983)"/><path class="p" d="M604.807,336.23l-5.993,78.379H578.07Z" transform="translate(-289.764 -172.206)"/><path class="ah" d="M772.37,94.6h-4.621a2.831,2.831,0,0,0-5.658.042v17.034H757.47V94.644a7.439,7.439,0,0,1,14.877-.042Z" transform="translate(-385.76 -38.943)"/><path class="ah" d="M754.334,147.6l-.121-.051L721.8,134.265l-2.427-.995-2.194.9-29.08,11.92-3.682,1.511a3.556,3.556,0,0,0-1.623,1.311,3.456,3.456,0,0,0-.465.93,3.585,3.585,0,0,0,3.422,4.621h67.226a3.721,3.721,0,0,0,1.232-.209,3.584,3.584,0,0,0,.121-6.671Zm-63.227,2.259,2.325-.93,25.947-10.67,28.294,11.623Z" transform="translate(-345.473 -63.603)"/><path class="j" d="M757.474,301.832v64.841H695V301.832a26.6,26.6,0,0,1,26.607-26.6h9.261a26.6,26.6,0,0,1,26.6,26.6Z" transform="translate(-352.333 -139.565)"/><path class="j" d="M758.652,146.889v50.8a8.257,8.257,0,0,1-8.252,8.247H720.037a8.113,8.113,0,0,1-3.44-.753,8.252,8.252,0,0,1-4.816-7.5V146.889l13.3-6.179v7.9a10.135,10.135,0,1,0,20.27,0v-7.9Z" transform="translate(-361.311 -67.584)"/><path class="s" d="M740.224,261.3c-.465,0-4.984-3.682-4.868-17.2,0,0-3.919,15.914-.465,17.1Z" transform="translate(-372.917 -122.908)"/><path class="s" d="M724.938,267.783h-.693a8.112,8.112,0,0,1-3.44-.753l-.14-.121c-2.139-1.9-.163-10.609-.163-10.609C720.916,263.831,724.938,267.783,724.938,267.783Z" transform="translate(-365.534 -129.436)"/><path class="s" d="M786.067,239.8s.553,16.867-6.337,19.163h7.285S789.154,245.1,786.067,239.8Z" transform="translate(-397.671 -120.606)"/><path class="s" d="M766.719,273.728a13.107,13.107,0,0,0,2.06-6.318s-2.552,6.179-6.118,6.416Z" transform="translate(-388.537 -135.381)"/><path class="s" d="M738.044,281.1s-7.243,10.228-5.816,22.567c0,0-6.295-14.491-.121-22.567Z" transform="translate(-370.737 -142.706)"/><path class="s" d="M793.011,319.947c5.453-17.573-4.161-38.941-4.161-38.941l3.608-.307a26.615,26.615,0,0,1,6.69,4.533C801.984,298.432,793.248,319.385,793.011,319.947Z" transform="translate(-402.551 -142.492)"/><path class="s" d="M758.19,281.041a28.57,28.57,0,0,1,3.445,13.9s4.789-8.689,2.692-13.947Z" transform="translate(-386.145 -142.647)"/><rect class="s" width="62.47" height="11.162" transform="translate(342.672 215.945)"/><path class="ai" d="M863.772,94.6h-4.6a2.831,2.831,0,0,0-5.663.042v17.034H848.89V94.644a7.439,7.439,0,0,1,14.877-.042Z" transform="translate(-434.678 -38.943)"/><path class="ai" d="M845.752,147.6l-32.543-13.334-2.422-.995-2.194.9-32.636,13.389-.116.051a3.584,3.584,0,0,0,.116,6.671,3.775,3.775,0,0,0,1.237.209h67.2a3.575,3.575,0,0,0,1.357-6.881Zm-63.227,2.259,28.271-11.6,28.29,11.623Z" transform="translate(-394.404 -63.603)"/><rect class="aj" width="30.047" height="4.63" transform="translate(401.367 71.768)"/><path class="ak" d="M800.411,145.8l15.123,27.155L830.7,145.879l20.428,7.955-17.815,50.833H799.7l-17.22-51.307Z" transform="translate(-399.142 -70.308)"/><path class="ak" d="M778.583,192.7l-10.353,56.1H754.85L767.7,162.57l7.876,13.817Z" transform="translate(-384.358 -79.281)"/><path class="ak" d="M906.59,192.7l10.349,56.1h13.38L917.474,162.57,909.6,176.387Z" transform="translate(-465.553 -79.281)"/><rect class="ah" width="34.203" height="6.295" transform="translate(400.558 133.763)"/><path class="ak" d="M810.917,284.42h31.59a9.935,9.935,0,0,1,9.935,9.935v69.239H801V294.355A9.935,9.935,0,0,1,810.917,284.42Z" transform="translate(-409.052 -144.483)"/></g></svg>