<svg xmlns="http://www.w3.org/2000/svg" width="63.971" height="60.524" viewBox="0 0 63.971 60.524"><defs><style>.a{fill:#d0d7df;}.a,.b,.c,.d{fill-rule:evenodd;}.b{fill:#fa5c66;}.c{fill:#88c9f7;}</style></defs><path class="a" d="M13.782,10H68.039a3.593,3.593,0,0,1,3.583,3.583V47.048a3.593,3.593,0,0,1-3.583,3.583H13.782A3.594,3.594,0,0,1,10.2,47.048V13.583A3.593,3.593,0,0,1,13.782,10Zm0,0" transform="translate(-8.925 -8.75)"/><path class="b" d="M204.2,102.822,186.946,92.86v19.925l8.628-4.981Zm0,0" transform="translate(-163.588 -81.257)"/><path class="c" d="M115.4,382.9a3.3,3.3,0,0,1,3.291,3.291v4.853a3.291,3.291,0,1,1-6.581,0v-4.853A3.3,3.3,0,0,1,115.4,382.9Zm0,0" transform="translate(-98.098 -335.061)"/><path class="d" d="M62.871,140.867a1.25,1.25,0,0,0-1.249,1.249v19.447a2.336,2.336,0,0,1-2.333,2.333H5.032A2.336,2.336,0,0,1,2.7,161.564V157.74a1.249,1.249,0,1,0-2.5,0v3.823A4.838,4.838,0,0,0,5.032,166.4H59.288a4.838,4.838,0,0,0,4.832-4.832V142.116A1.25,1.25,0,0,0,62.871,140.867Zm0,0" transform="translate(-0.174 -123.266)"/><path class="d" d="M1.449,25.528A1.249,1.249,0,0,0,2.7,24.278V4.831A2.336,2.336,0,0,1,5.031,2.5H59.288a2.336,2.336,0,0,1,2.333,2.333V8.655a1.249,1.249,0,1,0,2.5,0V4.831A4.838,4.838,0,0,0,59.288,0H5.031A4.838,4.838,0,0,0,.2,4.831V24.278A1.249,1.249,0,0,0,1.449,25.528Zm0,0" transform="translate(-0.174 0.001)"/><path class="d" d="M178.819,83.028a1.249,1.249,0,0,0-1.874,1.082v19.925a1.249,1.249,0,0,0,1.874,1.082l17.255-9.962a1.249,1.249,0,0,0,0-2.164Zm.625,18.843v-15.6l13.508,7.8Zm0,0" transform="translate(-154.837 -72.507)"/><path class="d" d="M62.872,378.619H22.012v-1.177a4.54,4.54,0,1,0-9.08,0v1.177H1.449a1.249,1.249,0,1,0,0,2.5H12.932v1.177a4.54,4.54,0,0,0,9.08,0v-1.177H62.872a1.249,1.249,0,1,0,0-2.5Zm-43.358,3.676a2.041,2.041,0,1,1-4.082,0v-4.853a2.041,2.041,0,1,1,4.082,0Zm0,0" transform="translate(-0.175 -326.31)"/><path class="d" d="M1.274,227.466A1.274,1.274,0,1,0,0,226.192,1.277,1.277,0,0,0,1.274,227.466Zm0,0" transform="translate(0 -196.815)"/><path class="d" d="M492.876,99.871a1.274,1.274,0,1,0,1.274,1.274A1.277,1.277,0,0,0,492.876,99.871Zm0,0" transform="translate(-430.179 -87.393)"/></svg>